<mxfile host="app.diagrams.net" agent="Mozilla/5.0 (Windows NT 10.0; Win64; x64) AppleWebKit/537.36 (KHTML, like Gecko) Chrome/140.0.0.0 Safari/537.36 Edg/140.0.0.0" version="28.2.2">
  <diagram name="ページ1" id="fzsrzRR5M82qOCcyWdOD">
    <mxGraphModel dx="536" dy="646" grid="1" gridSize="10" guides="1" tooltips="1" connect="1" arrows="1" fold="1" page="1" pageScale="1" pageWidth="827" pageHeight="1169" math="0" shadow="0">
      <root>
        <mxCell id="0" />
        <mxCell id="1" parent="0" />
        <mxCell id="45k0i_a7L739nN-PA12P-1" value="ユーザー" style="shape=umlActor;verticalLabelPosition=bottom;verticalAlign=top;html=1;outlineConnect=0;" vertex="1" parent="1">
          <mxGeometry x="70" y="70" width="40" height="70" as="geometry" />
        </mxCell>
        <mxCell id="45k0i_a7L739nN-PA12P-4" value="RoboDog&lt;div&gt;システムメニュー&lt;/div&gt;" style="shape=umlBoundary;whiteSpace=wrap;html=1;fillColor=light-dark(#FFFFFF,#006600);" vertex="1" parent="1">
          <mxGeometry x="160" y="80" width="120" height="100" as="geometry" />
        </mxCell>
        <mxCell id="45k0i_a7L739nN-PA12P-5" value="名前の変更画面の表示する" style="ellipse;shape=umlControl;whiteSpace=wrap;html=1;fillColor=light-dark(#FFFFFF,#660000);" vertex="1" parent="1">
          <mxGeometry x="335" y="70" width="100" height="110" as="geometry" />
        </mxCell>
        <mxCell id="45k0i_a7L739nN-PA12P-6" value="RoboDog" style="ellipse;shape=umlEntity;whiteSpace=wrap;html=1;fillColor=light-dark(#FFFFFF,#003366);" vertex="1" parent="1">
          <mxGeometry x="670" y="80" width="80" height="80" as="geometry" />
        </mxCell>
        <mxCell id="45k0i_a7L739nN-PA12P-13" value="" style="endArrow=classic;html=1;rounded=0;entryX=0;entryY=0;entryDx=0;entryDy=0;exitX=0.812;exitY=0.112;exitDx=0;exitDy=0;exitPerimeter=0;" edge="1" parent="1" source="45k0i_a7L739nN-PA12P-12" target="45k0i_a7L739nN-PA12P-11">
          <mxGeometry width="50" height="50" relative="1" as="geometry">
            <mxPoint x="100" y="220" as="sourcePoint" />
            <mxPoint x="120" y="210" as="targetPoint" />
          </mxGeometry>
        </mxCell>
        <mxCell id="45k0i_a7L739nN-PA12P-16" value="名前の変更画面" style="shape=umlBoundary;whiteSpace=wrap;html=1;fillColor=light-dark(#FFFFFF,#006600);" vertex="1" parent="1">
          <mxGeometry x="480" y="80" width="120" height="100" as="geometry" />
        </mxCell>
        <mxCell id="45k0i_a7L739nN-PA12P-17" value="" style="endArrow=classic;html=1;rounded=0;entryX=0;entryY=0;entryDx=0;entryDy=0;exitX=1.018;exitY=0.309;exitDx=0;exitDy=0;exitPerimeter=0;" edge="1" parent="1" source="45k0i_a7L739nN-PA12P-11" target="45k0i_a7L739nN-PA12P-8">
          <mxGeometry width="50" height="50" relative="1" as="geometry">
            <mxPoint x="250" y="228" as="sourcePoint" />
            <mxPoint x="250" y="210" as="targetPoint" />
          </mxGeometry>
        </mxCell>
        <mxCell id="45k0i_a7L739nN-PA12P-18" value="" style="endArrow=classic;html=1;rounded=0;entryX=0.302;entryY=0.382;entryDx=0;entryDy=0;exitX=0.92;exitY=0.159;exitDx=0;exitDy=0;exitPerimeter=0;entryPerimeter=0;" edge="1" parent="1" source="45k0i_a7L739nN-PA12P-8" target="45k0i_a7L739nN-PA12P-10">
          <mxGeometry width="50" height="50" relative="1" as="geometry">
            <mxPoint x="360" y="250" as="sourcePoint" />
            <mxPoint x="410" y="200" as="targetPoint" />
          </mxGeometry>
        </mxCell>
        <mxCell id="45k0i_a7L739nN-PA12P-19" value="" style="endArrow=none;dashed=1;html=1;dashPattern=1 3;strokeWidth=2;rounded=0;" edge="1" parent="1" target="45k0i_a7L739nN-PA12P-1">
          <mxGeometry width="50" height="50" relative="1" as="geometry">
            <mxPoint x="90" y="460" as="sourcePoint" />
            <mxPoint x="230" y="290" as="targetPoint" />
          </mxGeometry>
        </mxCell>
        <mxCell id="45k0i_a7L739nN-PA12P-12" value="" style="rounded=0;whiteSpace=wrap;html=1;" vertex="1" parent="1">
          <mxGeometry x="85" y="200" width="10" height="180" as="geometry" />
        </mxCell>
        <mxCell id="45k0i_a7L739nN-PA12P-20" value="" style="endArrow=none;dashed=1;html=1;dashPattern=1 3;strokeWidth=2;rounded=0;entryX=0.623;entryY=1.029;entryDx=0;entryDy=0;entryPerimeter=0;" edge="1" parent="1" source="45k0i_a7L739nN-PA12P-11" target="45k0i_a7L739nN-PA12P-4">
          <mxGeometry width="50" height="50" relative="1" as="geometry">
            <mxPoint x="235" y="460" as="sourcePoint" />
            <mxPoint x="210" y="230" as="targetPoint" />
          </mxGeometry>
        </mxCell>
        <mxCell id="45k0i_a7L739nN-PA12P-21" value="" style="endArrow=none;dashed=1;html=1;dashPattern=1 3;strokeWidth=2;rounded=0;entryX=0.499;entryY=1.013;entryDx=0;entryDy=0;entryPerimeter=0;" edge="1" parent="1" target="45k0i_a7L739nN-PA12P-5">
          <mxGeometry width="50" height="50" relative="1" as="geometry">
            <mxPoint x="385" y="450.76192801339283" as="sourcePoint" />
            <mxPoint x="370" y="220" as="targetPoint" />
          </mxGeometry>
        </mxCell>
        <mxCell id="45k0i_a7L739nN-PA12P-22" value="" style="endArrow=none;dashed=1;html=1;dashPattern=1 3;strokeWidth=2;rounded=0;entryX=0.619;entryY=1.004;entryDx=0;entryDy=0;entryPerimeter=0;" edge="1" parent="1" source="45k0i_a7L739nN-PA12P-9" target="45k0i_a7L739nN-PA12P-16">
          <mxGeometry width="50" height="50" relative="1" as="geometry">
            <mxPoint x="554" y="450" as="sourcePoint" />
            <mxPoint x="470" y="360" as="targetPoint" />
          </mxGeometry>
        </mxCell>
        <mxCell id="45k0i_a7L739nN-PA12P-23" value="" style="endArrow=none;dashed=1;html=1;dashPattern=1 3;strokeWidth=2;rounded=0;entryX=0.5;entryY=1;entryDx=0;entryDy=0;" edge="1" parent="1" source="45k0i_a7L739nN-PA12P-10" target="45k0i_a7L739nN-PA12P-6">
          <mxGeometry width="50" height="50" relative="1" as="geometry">
            <mxPoint x="710" y="452.5806451612903" as="sourcePoint" />
            <mxPoint x="670" y="230" as="targetPoint" />
          </mxGeometry>
        </mxCell>
        <mxCell id="45k0i_a7L739nN-PA12P-8" value="" style="rounded=0;whiteSpace=wrap;html=1;" vertex="1" parent="1">
          <mxGeometry x="380" y="270" width="10" height="110" as="geometry" />
        </mxCell>
        <mxCell id="45k0i_a7L739nN-PA12P-24" value="" style="endArrow=none;dashed=1;html=1;dashPattern=1 3;strokeWidth=2;rounded=0;entryX=0.619;entryY=1.004;entryDx=0;entryDy=0;entryPerimeter=0;" edge="1" parent="1" target="45k0i_a7L739nN-PA12P-9">
          <mxGeometry width="50" height="50" relative="1" as="geometry">
            <mxPoint x="554" y="450" as="sourcePoint" />
            <mxPoint x="554" y="180" as="targetPoint" />
          </mxGeometry>
        </mxCell>
        <mxCell id="45k0i_a7L739nN-PA12P-9" value="" style="rounded=0;whiteSpace=wrap;html=1;" vertex="1" parent="1">
          <mxGeometry x="550" y="370" width="10" height="50" as="geometry" />
        </mxCell>
        <mxCell id="45k0i_a7L739nN-PA12P-26" value="" style="endArrow=none;dashed=1;html=1;dashPattern=1 3;strokeWidth=2;rounded=0;entryX=0.623;entryY=1.029;entryDx=0;entryDy=0;entryPerimeter=0;" edge="1" parent="1" target="45k0i_a7L739nN-PA12P-11">
          <mxGeometry width="50" height="50" relative="1" as="geometry">
            <mxPoint x="235" y="460" as="sourcePoint" />
            <mxPoint x="235" y="183" as="targetPoint" />
          </mxGeometry>
        </mxCell>
        <mxCell id="45k0i_a7L739nN-PA12P-11" value="" style="rounded=0;whiteSpace=wrap;html=1;" vertex="1" parent="1">
          <mxGeometry x="230" y="220" width="10" height="160" as="geometry" />
        </mxCell>
        <mxCell id="45k0i_a7L739nN-PA12P-29" value="" style="endArrow=none;dashed=1;html=1;dashPattern=1 3;strokeWidth=2;rounded=0;entryX=0.5;entryY=1;entryDx=0;entryDy=0;" edge="1" parent="1" target="45k0i_a7L739nN-PA12P-10">
          <mxGeometry width="50" height="50" relative="1" as="geometry">
            <mxPoint x="710" y="452.5806451612903" as="sourcePoint" />
            <mxPoint x="710" y="160" as="targetPoint" />
          </mxGeometry>
        </mxCell>
        <mxCell id="45k0i_a7L739nN-PA12P-10" value="" style="rounded=0;whiteSpace=wrap;html=1;" vertex="1" parent="1">
          <mxGeometry x="705" y="270" width="10" height="50" as="geometry" />
        </mxCell>
        <mxCell id="45k0i_a7L739nN-PA12P-30" value="" style="endArrow=block;dashed=1;endFill=0;endSize=12;html=1;rounded=0;exitX=0.5;exitY=1;exitDx=0;exitDy=0;entryX=1.267;entryY=0.428;entryDx=0;entryDy=0;entryPerimeter=0;" edge="1" parent="1" source="45k0i_a7L739nN-PA12P-10" target="45k0i_a7L739nN-PA12P-8">
          <mxGeometry width="160" relative="1" as="geometry">
            <mxPoint x="410" y="470" as="sourcePoint" />
            <mxPoint x="570" y="470" as="targetPoint" />
          </mxGeometry>
        </mxCell>
        <mxCell id="45k0i_a7L739nN-PA12P-31" value="" style="endArrow=classic;html=1;rounded=0;entryX=0;entryY=0;entryDx=0;entryDy=0;exitX=0.878;exitY=0.906;exitDx=0;exitDy=0;exitPerimeter=0;" edge="1" parent="1" source="45k0i_a7L739nN-PA12P-8" target="45k0i_a7L739nN-PA12P-9">
          <mxGeometry width="50" height="50" relative="1" as="geometry">
            <mxPoint x="400" y="370" as="sourcePoint" />
            <mxPoint x="510" y="380" as="targetPoint" />
          </mxGeometry>
        </mxCell>
        <mxCell id="45k0i_a7L739nN-PA12P-32" value="名前の変更を選択" style="text;html=1;align=center;verticalAlign=middle;whiteSpace=wrap;rounded=0;" vertex="1" parent="1">
          <mxGeometry x="110" y="180" width="105" height="30" as="geometry" />
        </mxCell>
        <mxCell id="45k0i_a7L739nN-PA12P-33" value="名前の取得" style="text;html=1;align=center;verticalAlign=middle;whiteSpace=wrap;rounded=0;" vertex="1" parent="1">
          <mxGeometry x="520" y="260" width="80" height="30" as="geometry" />
        </mxCell>
        <mxCell id="45k0i_a7L739nN-PA12P-34" value="変更した名前の表示" style="text;html=1;align=center;verticalAlign=middle;whiteSpace=wrap;rounded=0;" vertex="1" parent="1">
          <mxGeometry x="414" y="340" width="120" height="30" as="geometry" />
        </mxCell>
      </root>
    </mxGraphModel>
  </diagram>
</mxfile>
